<svg xmlns="http://www.w3.org/2000/svg" viewBox="0 0 480 360" width="480" height="360" role="img"><rect width="480" height="360" fill="#F2F5EC"/><circle cx="240" cy="165.6" r="144" fill="#E9F3CF"/><circle cx="398.4" cy="79.2" r="43.199999999999996" fill="#E9F3CF" fill-opacity="0.6"/><circle cx="67.2" cy="266.4" r="32.4" fill="#E9F3CF" fill-opacity="0.5"/><ellipse cx="240" cy="310" rx="122" ry="17.080000000000002" fill="#0E2A22" fill-opacity="0.08"/><g transform="translate(240 306) scale(1)">
    <rect x="-52" y="-160" width="104" height="14" rx="4" fill="#174436" fill-opacity="0.35"/>
    <path d="M-48 -146 q3-10 15-10 h66 q12 0 15 10 l4 18 v116 q0 12-14 12 h-76 q-14 0-14-12 v-116 z"
          fill="#F7F5EF" stroke="#DCE2D2" stroke-width="2"/>
    <rect x="-52" y="-84" width="104" height="46" fill="#174436"/>
  </g><g transform="translate(356 280) rotate(12) scale(0.86)">
    <path d="M-26 -8 q26-30 52 0 z" fill="#B9DC55"/>
    <ellipse cx="0" cy="0" rx="30" ry="17" fill="#174436"/>
    <rect x="26" y="-5" width="92" height="10" rx="5" fill="#174436"/>
  </g><g transform="translate(104 268) scale(0.86)">
    <circle cx="-22" cy="0" r="18" fill="#B33A2E"/>
    <circle cx="14" cy="-8" r="22" fill="#B33A2E" fill-opacity="0.85"/>
    <circle cx="-2" cy="18" r="15" fill="#B33A2E" fill-opacity="0.7"/>
  </g><g transform="translate(132 306) rotate(-34) scale(0.72)"><path d="M0 0 Q 30 -36 0 -78 Q -30 -36 0 0 Z" fill="#2A6A52"/><path d="M0 -6 V -68" stroke="#E9F3CF" stroke-opacity="0.7" stroke-width="3.5" stroke-linecap="round"/></g></svg>
