<svg xmlns="http://www.w3.org/2000/svg" viewBox="0 0 600 400" width="600" height="400" role="img"><rect width="600" height="400" fill="#F2F5EC"/><circle cx="300" cy="184" r="160" fill="#E9F3CF"/><circle cx="498" cy="88" r="48" fill="#E9F3CF" fill-opacity="0.6"/><circle cx="84.00000000000001" cy="296" r="36" fill="#E9F3CF" fill-opacity="0.5"/><ellipse cx="300" cy="352" rx="160" ry="22.400000000000002" fill="#0E2A22" fill-opacity="0.08"/><g transform="translate(300 298) scale(1.06)">
    <path d="M-90 -18 h180 q-8 76-90 76 t-90-76 z" fill="#F7F5EF" stroke="#DCE2D2" stroke-width="2"/>
    <ellipse cx="0" cy="-18" rx="90" ry="16" fill="#F2F5EC"/>
    <ellipse cx="0" cy="-30" rx="72" ry="20" fill="#F3E3C4"/>
  </g><g transform="translate(468 344) scale(0.68)">
    <rect x="-46" y="-150" width="92" height="30" rx="9" fill="#174436"/>
    <rect x="-54" y="-126" width="108" height="126" rx="16" fill="#F7F5EF" stroke="#DCE2D2" stroke-width="2"/>
    <rect x="-54" y="-86" width="108" height="46" fill="#F3E3C4"/>
  </g><g transform="translate(146 300) rotate(18) scale(0.84)">
    <path d="M-26 -8 q26-30 52 0 z" fill="#F3E3C4"/>
    <ellipse cx="0" cy="0" rx="30" ry="17" fill="#2A6A52"/>
    <rect x="26" y="-5" width="92" height="10" rx="5" fill="#2A6A52"/>
  </g></svg>
